<mxfile host="app.diagrams.net" modified="2024-03-13T08:55:48.855Z" agent="Mozilla/5.0 (Windows NT 10.0; Win64; x64) AppleWebKit/537.36 (KHTML, like Gecko) Chrome/120.0.0.0 YaBrowser/24.1.0.0 Safari/537.36" etag="NC8HYEixd4233OPkPZTy" version="24.0.5" type="github">
  <diagram name="Страница — 1" id="sMpfv1vUQwmXqTF9oKSZ">
    <mxGraphModel dx="2035" dy="1283" grid="0" gridSize="10" guides="1" tooltips="1" connect="1" arrows="1" fold="1" page="1" pageScale="1" pageWidth="3300" pageHeight="4681" math="0" shadow="0">
      <root>
        <mxCell id="0" />
        <mxCell id="1" parent="0" />
        <mxCell id="YY63stGorWPtqNPKm8e1-54" value="" style="edgeStyle=none;rounded=0;orthogonalLoop=1;jettySize=auto;html=1;strokeColor=default;align=center;verticalAlign=middle;fontFamily=Helvetica;fontSize=11;fontColor=default;labelBackgroundColor=default;endArrow=open;endFill=0;strokeWidth=1;endSize=11;startSize=11;" edge="1" parent="1" source="w3AdDSWSRcpGqZ1iqoAT-1" target="YY63stGorWPtqNPKm8e1-41">
          <mxGeometry relative="1" as="geometry" />
        </mxCell>
        <mxCell id="w3AdDSWSRcpGqZ1iqoAT-1" value="Клиент" style="shape=umlActor;verticalLabelPosition=bottom;verticalAlign=top;html=1;outlineConnect=0;" parent="1" vertex="1">
          <mxGeometry x="66.5" y="615.5" width="30" height="60" as="geometry" />
        </mxCell>
        <mxCell id="YY63stGorWPtqNPKm8e1-1" value="Интерфейс&lt;div&gt;сайта&lt;/div&gt;&lt;div&gt;агентства&lt;/div&gt;" style="shape=umlBoundary;whiteSpace=wrap;html=1;" vertex="1" parent="1">
          <mxGeometry x="139" y="154" width="100" height="80" as="geometry" />
        </mxCell>
        <mxCell id="YY63stGorWPtqNPKm8e1-2" value="Личный кабинет" style="ellipse;shape=umlEntity;whiteSpace=wrap;html=1;" vertex="1" parent="1">
          <mxGeometry x="432" y="154" width="80" height="80" as="geometry" />
        </mxCell>
        <mxCell id="YY63stGorWPtqNPKm8e1-3" value="Регистрация" style="ellipse;shape=umlControl;whiteSpace=wrap;html=1;" vertex="1" parent="1">
          <mxGeometry x="288" y="147" width="84" height="86" as="geometry" />
        </mxCell>
        <mxCell id="YY63stGorWPtqNPKm8e1-24" style="edgeStyle=none;rounded=0;orthogonalLoop=1;jettySize=auto;html=1;exitX=0;exitY=1;exitDx=0;exitDy=0;dashed=1;strokeColor=default;align=center;verticalAlign=middle;fontFamily=Helvetica;fontSize=11;fontColor=default;labelBackgroundColor=default;endArrow=none;endFill=0;" edge="1" parent="1" source="YY63stGorWPtqNPKm8e1-4" target="YY63stGorWPtqNPKm8e1-21">
          <mxGeometry relative="1" as="geometry" />
        </mxCell>
        <mxCell id="YY63stGorWPtqNPKm8e1-25" style="edgeStyle=none;rounded=0;orthogonalLoop=1;jettySize=auto;html=1;exitX=0.5;exitY=1;exitDx=0;exitDy=0;dashed=1;strokeColor=default;align=center;verticalAlign=middle;fontFamily=Helvetica;fontSize=11;fontColor=default;labelBackgroundColor=default;endArrow=none;endFill=0;" edge="1" parent="1" source="YY63stGorWPtqNPKm8e1-4" target="YY63stGorWPtqNPKm8e1-23">
          <mxGeometry relative="1" as="geometry" />
        </mxCell>
        <mxCell id="YY63stGorWPtqNPKm8e1-26" style="edgeStyle=none;rounded=0;orthogonalLoop=1;jettySize=auto;html=1;exitX=1;exitY=1;exitDx=0;exitDy=0;dashed=1;strokeColor=default;align=center;verticalAlign=middle;fontFamily=Helvetica;fontSize=11;fontColor=default;labelBackgroundColor=default;endArrow=none;endFill=0;" edge="1" parent="1" source="YY63stGorWPtqNPKm8e1-4" target="YY63stGorWPtqNPKm8e1-22">
          <mxGeometry relative="1" as="geometry" />
        </mxCell>
        <mxCell id="YY63stGorWPtqNPKm8e1-4" value="Провести осмотр&lt;div&gt;недвижимости&lt;/div&gt;" style="ellipse;whiteSpace=wrap;html=1;" vertex="1" parent="1">
          <mxGeometry x="731" y="280" width="140" height="70" as="geometry" />
        </mxCell>
        <mxCell id="YY63stGorWPtqNPKm8e1-15" style="edgeStyle=none;rounded=0;orthogonalLoop=1;jettySize=auto;html=1;exitX=0;exitY=1;exitDx=0;exitDy=0;dashed=1;strokeColor=default;align=center;verticalAlign=middle;fontFamily=Helvetica;fontSize=11;fontColor=default;labelBackgroundColor=default;endArrow=none;endFill=0;" edge="1" parent="1" source="YY63stGorWPtqNPKm8e1-5" target="YY63stGorWPtqNPKm8e1-12">
          <mxGeometry relative="1" as="geometry" />
        </mxCell>
        <mxCell id="YY63stGorWPtqNPKm8e1-16" style="edgeStyle=none;rounded=0;orthogonalLoop=1;jettySize=auto;html=1;exitX=0.5;exitY=1;exitDx=0;exitDy=0;dashed=1;strokeColor=default;align=center;verticalAlign=middle;fontFamily=Helvetica;fontSize=11;fontColor=default;labelBackgroundColor=default;endArrow=none;endFill=0;" edge="1" parent="1" source="YY63stGorWPtqNPKm8e1-5" target="YY63stGorWPtqNPKm8e1-14">
          <mxGeometry relative="1" as="geometry" />
        </mxCell>
        <mxCell id="YY63stGorWPtqNPKm8e1-17" style="edgeStyle=none;rounded=0;orthogonalLoop=1;jettySize=auto;html=1;exitX=1;exitY=1;exitDx=0;exitDy=0;dashed=1;strokeColor=default;align=center;verticalAlign=middle;fontFamily=Helvetica;fontSize=11;fontColor=default;labelBackgroundColor=default;endArrow=none;endFill=0;" edge="1" parent="1" source="YY63stGorWPtqNPKm8e1-5" target="YY63stGorWPtqNPKm8e1-13">
          <mxGeometry relative="1" as="geometry" />
        </mxCell>
        <mxCell id="YY63stGorWPtqNPKm8e1-38" style="edgeStyle=none;rounded=0;orthogonalLoop=1;jettySize=auto;html=1;exitX=0.5;exitY=1;exitDx=0;exitDy=0;dashed=1;strokeColor=default;align=center;verticalAlign=middle;fontFamily=Helvetica;fontSize=11;fontColor=default;labelBackgroundColor=default;endArrow=none;endFill=0;" edge="1" parent="1" source="YY63stGorWPtqNPKm8e1-5" target="YY63stGorWPtqNPKm8e1-36">
          <mxGeometry relative="1" as="geometry" />
        </mxCell>
        <mxCell id="YY63stGorWPtqNPKm8e1-5" value="Записаться на осмотр&lt;div&gt;объекта&lt;/div&gt;&lt;div&gt;недвижимости&lt;/div&gt;" style="ellipse;whiteSpace=wrap;html=1;" vertex="1" parent="1">
          <mxGeometry x="262" y="261" width="140" height="85" as="geometry" />
        </mxCell>
        <mxCell id="YY63stGorWPtqNPKm8e1-27" style="edgeStyle=none;rounded=0;orthogonalLoop=1;jettySize=auto;html=1;exitX=0;exitY=1;exitDx=0;exitDy=0;dashed=1;strokeColor=default;align=center;verticalAlign=middle;fontFamily=Helvetica;fontSize=11;fontColor=default;labelBackgroundColor=default;endArrow=none;endFill=0;" edge="1" parent="1" source="YY63stGorWPtqNPKm8e1-6" target="YY63stGorWPtqNPKm8e1-18">
          <mxGeometry relative="1" as="geometry" />
        </mxCell>
        <mxCell id="YY63stGorWPtqNPKm8e1-28" value="" style="edgeStyle=none;rounded=0;orthogonalLoop=1;jettySize=auto;html=1;dashed=1;strokeColor=default;align=center;verticalAlign=middle;fontFamily=Helvetica;fontSize=11;fontColor=default;labelBackgroundColor=default;endArrow=none;endFill=0;" edge="1" parent="1" source="YY63stGorWPtqNPKm8e1-6" target="YY63stGorWPtqNPKm8e1-20">
          <mxGeometry relative="1" as="geometry" />
        </mxCell>
        <mxCell id="YY63stGorWPtqNPKm8e1-29" style="edgeStyle=none;rounded=0;orthogonalLoop=1;jettySize=auto;html=1;exitX=1;exitY=1;exitDx=0;exitDy=0;dashed=1;strokeColor=default;align=center;verticalAlign=middle;fontFamily=Helvetica;fontSize=11;fontColor=default;labelBackgroundColor=default;endArrow=none;endFill=0;" edge="1" parent="1" source="YY63stGorWPtqNPKm8e1-6" target="YY63stGorWPtqNPKm8e1-19">
          <mxGeometry relative="1" as="geometry" />
        </mxCell>
        <mxCell id="YY63stGorWPtqNPKm8e1-33" style="edgeStyle=none;rounded=0;orthogonalLoop=1;jettySize=auto;html=1;exitX=1;exitY=0.5;exitDx=0;exitDy=0;dashed=1;strokeColor=default;align=center;verticalAlign=middle;fontFamily=Helvetica;fontSize=11;fontColor=default;labelBackgroundColor=default;endArrow=none;endFill=0;" edge="1" parent="1" source="YY63stGorWPtqNPKm8e1-6" target="YY63stGorWPtqNPKm8e1-32">
          <mxGeometry relative="1" as="geometry" />
        </mxCell>
        <mxCell id="YY63stGorWPtqNPKm8e1-40" style="edgeStyle=none;rounded=0;orthogonalLoop=1;jettySize=auto;html=1;exitX=1;exitY=0.5;exitDx=0;exitDy=0;dashed=1;strokeColor=default;align=center;verticalAlign=middle;fontFamily=Helvetica;fontSize=11;fontColor=default;labelBackgroundColor=default;endArrow=none;endFill=0;" edge="1" parent="1" source="YY63stGorWPtqNPKm8e1-6" target="YY63stGorWPtqNPKm8e1-39">
          <mxGeometry relative="1" as="geometry" />
        </mxCell>
        <mxCell id="YY63stGorWPtqNPKm8e1-6" value="Заключить&lt;div&gt;сделку&lt;/div&gt;" style="ellipse;whiteSpace=wrap;html=1;" vertex="1" parent="1">
          <mxGeometry x="682" y="43" width="140" height="70" as="geometry" />
        </mxCell>
        <mxCell id="YY63stGorWPtqNPKm8e1-8" style="rounded=0;orthogonalLoop=1;jettySize=auto;html=1;exitX=0;exitY=1;exitDx=0;exitDy=0;dashed=1;endArrow=none;endFill=0;" edge="1" parent="1" source="YY63stGorWPtqNPKm8e1-7" target="YY63stGorWPtqNPKm8e1-1">
          <mxGeometry relative="1" as="geometry" />
        </mxCell>
        <mxCell id="YY63stGorWPtqNPKm8e1-10" style="edgeStyle=none;rounded=0;orthogonalLoop=1;jettySize=auto;html=1;exitX=0.5;exitY=1;exitDx=0;exitDy=0;dashed=1;strokeColor=default;align=center;verticalAlign=middle;fontFamily=Helvetica;fontSize=11;fontColor=default;labelBackgroundColor=default;endArrow=none;endFill=0;" edge="1" parent="1" source="YY63stGorWPtqNPKm8e1-7" target="YY63stGorWPtqNPKm8e1-3">
          <mxGeometry relative="1" as="geometry" />
        </mxCell>
        <mxCell id="YY63stGorWPtqNPKm8e1-11" style="edgeStyle=none;rounded=0;orthogonalLoop=1;jettySize=auto;html=1;exitX=1;exitY=1;exitDx=0;exitDy=0;dashed=1;strokeColor=default;align=center;verticalAlign=middle;fontFamily=Helvetica;fontSize=11;fontColor=default;labelBackgroundColor=default;endArrow=none;endFill=0;" edge="1" parent="1" source="YY63stGorWPtqNPKm8e1-7" target="YY63stGorWPtqNPKm8e1-2">
          <mxGeometry relative="1" as="geometry" />
        </mxCell>
        <mxCell id="YY63stGorWPtqNPKm8e1-7" value="Зарегистрироваться&lt;div&gt;в&lt;/div&gt;&lt;div&gt;системе&lt;/div&gt;" style="ellipse;whiteSpace=wrap;html=1;" vertex="1" parent="1">
          <mxGeometry x="262" y="52" width="140" height="70" as="geometry" />
        </mxCell>
        <mxCell id="YY63stGorWPtqNPKm8e1-12" value="Интерфейс&lt;div&gt;сайта&lt;/div&gt;&lt;div&gt;агенства&lt;/div&gt;" style="shape=umlBoundary;whiteSpace=wrap;html=1;" vertex="1" parent="1">
          <mxGeometry x="106" y="385" width="100" height="80" as="geometry" />
        </mxCell>
        <mxCell id="YY63stGorWPtqNPKm8e1-13" value="Личный кабинет" style="ellipse;shape=umlEntity;whiteSpace=wrap;html=1;" vertex="1" parent="1">
          <mxGeometry x="432" y="385" width="80" height="80" as="geometry" />
        </mxCell>
        <mxCell id="YY63stGorWPtqNPKm8e1-14" value="Запись на&lt;div&gt;осмотр&lt;/div&gt;" style="ellipse;shape=umlControl;whiteSpace=wrap;html=1;" vertex="1" parent="1">
          <mxGeometry x="338" y="378" width="84" height="86" as="geometry" />
        </mxCell>
        <mxCell id="YY63stGorWPtqNPKm8e1-18" value="Интерфейс&lt;div&gt;сайта&lt;/div&gt;&lt;div&gt;агенства&lt;/div&gt;" style="shape=umlBoundary;whiteSpace=wrap;html=1;" vertex="1" parent="1">
          <mxGeometry x="561" y="148.5" width="100" height="80" as="geometry" />
        </mxCell>
        <mxCell id="YY63stGorWPtqNPKm8e1-19" value="Объект недвижимости" style="ellipse;shape=umlEntity;whiteSpace=wrap;html=1;" vertex="1" parent="1">
          <mxGeometry x="803" y="148.5" width="89" height="85.5" as="geometry" />
        </mxCell>
        <mxCell id="YY63stGorWPtqNPKm8e1-20" value="Заключение&lt;div&gt;сделки&lt;/div&gt;" style="ellipse;shape=umlControl;whiteSpace=wrap;html=1;" vertex="1" parent="1">
          <mxGeometry x="694" y="141.5" width="84" height="86" as="geometry" />
        </mxCell>
        <mxCell id="YY63stGorWPtqNPKm8e1-21" value="Место встречи с агентом" style="shape=umlBoundary;whiteSpace=wrap;html=1;" vertex="1" parent="1">
          <mxGeometry x="610" y="385" width="100" height="80" as="geometry" />
        </mxCell>
        <mxCell id="YY63stGorWPtqNPKm8e1-22" value="Объект&lt;div&gt;недвижимости&lt;/div&gt;" style="ellipse;shape=umlEntity;whiteSpace=wrap;html=1;" vertex="1" parent="1">
          <mxGeometry x="903" y="381" width="92" height="86" as="geometry" />
        </mxCell>
        <mxCell id="YY63stGorWPtqNPKm8e1-23" value="Осмотр" style="ellipse;shape=umlControl;whiteSpace=wrap;html=1;" vertex="1" parent="1">
          <mxGeometry x="759" y="378" width="84" height="86" as="geometry" />
        </mxCell>
        <mxCell id="YY63stGorWPtqNPKm8e1-32" value="Документы&lt;div&gt;для&lt;/div&gt;&lt;div&gt;сделки&lt;/div&gt;" style="ellipse;shape=umlEntity;whiteSpace=wrap;html=1;" vertex="1" parent="1">
          <mxGeometry x="911" y="148.5" width="89" height="85.5" as="geometry" />
        </mxCell>
        <mxCell id="YY63stGorWPtqNPKm8e1-36" value="Список записей на сайте&lt;div&gt;агентства&lt;/div&gt;" style="shape=umlBoundary;whiteSpace=wrap;html=1;" vertex="1" parent="1">
          <mxGeometry x="222" y="383" width="100" height="80" as="geometry" />
        </mxCell>
        <mxCell id="YY63stGorWPtqNPKm8e1-39" value="Личный кабинет" style="ellipse;shape=umlEntity;whiteSpace=wrap;html=1;" vertex="1" parent="1">
          <mxGeometry x="1016" y="145.75" width="89" height="85.5" as="geometry" />
        </mxCell>
        <mxCell id="YY63stGorWPtqNPKm8e1-55" value="" style="edgeStyle=none;rounded=0;orthogonalLoop=1;jettySize=auto;html=1;strokeColor=default;strokeWidth=1;align=center;verticalAlign=middle;fontFamily=Helvetica;fontSize=11;fontColor=default;labelBackgroundColor=default;startSize=11;endArrow=open;endFill=0;endSize=11;" edge="1" parent="1" source="YY63stGorWPtqNPKm8e1-41" target="YY63stGorWPtqNPKm8e1-43">
          <mxGeometry relative="1" as="geometry" />
        </mxCell>
        <mxCell id="YY63stGorWPtqNPKm8e1-41" value="Интерфейс&lt;div&gt;сайта&lt;/div&gt;&lt;div&gt;агентства&lt;/div&gt;" style="shape=umlBoundary;whiteSpace=wrap;html=1;" vertex="1" parent="1">
          <mxGeometry x="160.5" y="609" width="100" height="80" as="geometry" />
        </mxCell>
        <mxCell id="YY63stGorWPtqNPKm8e1-42" value="Личный кабинет" style="ellipse;shape=umlEntity;whiteSpace=wrap;html=1;" vertex="1" parent="1">
          <mxGeometry x="443" y="609" width="80" height="80" as="geometry" />
        </mxCell>
        <mxCell id="YY63stGorWPtqNPKm8e1-56" value="" style="edgeStyle=none;rounded=0;orthogonalLoop=1;jettySize=auto;html=1;strokeColor=default;strokeWidth=1;align=center;verticalAlign=middle;fontFamily=Helvetica;fontSize=11;fontColor=default;labelBackgroundColor=default;startSize=11;endArrow=open;endFill=0;endSize=11;dashed=1;" edge="1" parent="1" source="YY63stGorWPtqNPKm8e1-43" target="YY63stGorWPtqNPKm8e1-42">
          <mxGeometry relative="1" as="geometry" />
        </mxCell>
        <mxCell id="YY63stGorWPtqNPKm8e1-43" value="Регистрация" style="ellipse;shape=umlControl;whiteSpace=wrap;html=1;" vertex="1" parent="1">
          <mxGeometry x="309.5" y="602" width="84" height="86" as="geometry" />
        </mxCell>
        <mxCell id="YY63stGorWPtqNPKm8e1-47" value="Клиент" style="shape=umlActor;verticalLabelPosition=bottom;verticalAlign=top;html=1;outlineConnect=0;" vertex="1" parent="1">
          <mxGeometry x="61" y="875" width="30" height="60" as="geometry" />
        </mxCell>
        <mxCell id="YY63stGorWPtqNPKm8e1-58" value="" style="edgeStyle=none;rounded=0;orthogonalLoop=1;jettySize=auto;html=1;strokeColor=default;strokeWidth=1;align=center;verticalAlign=middle;fontFamily=Helvetica;fontSize=11;fontColor=default;labelBackgroundColor=default;startSize=11;endArrow=open;endFill=0;endSize=11;" edge="1" parent="1" source="YY63stGorWPtqNPKm8e1-49" target="YY63stGorWPtqNPKm8e1-51">
          <mxGeometry relative="1" as="geometry" />
        </mxCell>
        <mxCell id="YY63stGorWPtqNPKm8e1-49" value="Интерфейс&lt;div&gt;сайта&lt;/div&gt;&lt;div&gt;агенства&lt;/div&gt;" style="shape=umlBoundary;whiteSpace=wrap;html=1;" vertex="1" parent="1">
          <mxGeometry x="163" y="805" width="100" height="80" as="geometry" />
        </mxCell>
        <mxCell id="YY63stGorWPtqNPKm8e1-50" value="Личный кабинет" style="ellipse;shape=umlEntity;whiteSpace=wrap;html=1;" vertex="1" parent="1">
          <mxGeometry x="462" y="865" width="80" height="80" as="geometry" />
        </mxCell>
        <mxCell id="YY63stGorWPtqNPKm8e1-59" value="" style="edgeStyle=none;rounded=0;orthogonalLoop=1;jettySize=auto;html=1;strokeColor=default;strokeWidth=1;align=center;verticalAlign=middle;fontFamily=Helvetica;fontSize=11;fontColor=default;labelBackgroundColor=default;startSize=11;endArrow=open;endFill=0;endSize=11;dashed=1;" edge="1" parent="1" source="YY63stGorWPtqNPKm8e1-51" target="YY63stGorWPtqNPKm8e1-50">
          <mxGeometry relative="1" as="geometry" />
        </mxCell>
        <mxCell id="YY63stGorWPtqNPKm8e1-60" value="" style="edgeStyle=none;rounded=0;orthogonalLoop=1;jettySize=auto;html=1;strokeColor=default;strokeWidth=1;align=center;verticalAlign=middle;fontFamily=Helvetica;fontSize=11;fontColor=default;labelBackgroundColor=default;startSize=11;endArrow=open;endFill=0;endSize=11;" edge="1" parent="1" source="YY63stGorWPtqNPKm8e1-51" target="YY63stGorWPtqNPKm8e1-52">
          <mxGeometry relative="1" as="geometry" />
        </mxCell>
        <mxCell id="YY63stGorWPtqNPKm8e1-51" value="Запись на&lt;div&gt;осмотр&lt;/div&gt;" style="ellipse;shape=umlControl;whiteSpace=wrap;html=1;" vertex="1" parent="1">
          <mxGeometry x="322" y="862" width="84" height="86" as="geometry" />
        </mxCell>
        <mxCell id="YY63stGorWPtqNPKm8e1-61" value="" style="edgeStyle=none;rounded=0;orthogonalLoop=1;jettySize=auto;html=1;strokeColor=default;strokeWidth=1;align=center;verticalAlign=middle;fontFamily=Helvetica;fontSize=11;fontColor=default;labelBackgroundColor=default;startSize=11;endArrow=open;endFill=0;endSize=11;exitX=-0.021;exitY=0.512;exitDx=0;exitDy=0;exitPerimeter=0;" edge="1" parent="1" source="YY63stGorWPtqNPKm8e1-52" target="YY63stGorWPtqNPKm8e1-47">
          <mxGeometry relative="1" as="geometry" />
        </mxCell>
        <mxCell id="YY63stGorWPtqNPKm8e1-52" value="Список записей на сайте&lt;div&gt;агентства&lt;/div&gt;" style="shape=umlBoundary;whiteSpace=wrap;html=1;" vertex="1" parent="1">
          <mxGeometry x="163" y="922" width="100" height="80" as="geometry" />
        </mxCell>
        <mxCell id="YY63stGorWPtqNPKm8e1-57" style="edgeStyle=none;rounded=0;orthogonalLoop=1;jettySize=auto;html=1;exitX=1;exitY=0.3333333333333333;exitDx=0;exitDy=0;exitPerimeter=0;entryX=-0.006;entryY=0.5;entryDx=0;entryDy=0;entryPerimeter=0;strokeColor=default;strokeWidth=1;align=center;verticalAlign=middle;fontFamily=Helvetica;fontSize=11;fontColor=default;labelBackgroundColor=default;startSize=11;endArrow=open;endFill=0;endSize=11;" edge="1" parent="1" source="YY63stGorWPtqNPKm8e1-47" target="YY63stGorWPtqNPKm8e1-49">
          <mxGeometry relative="1" as="geometry" />
        </mxCell>
        <mxCell id="YY63stGorWPtqNPKm8e1-66" value="" style="edgeStyle=none;rounded=0;orthogonalLoop=1;jettySize=auto;html=1;strokeColor=default;strokeWidth=1;align=center;verticalAlign=middle;fontFamily=Helvetica;fontSize=11;fontColor=default;labelBackgroundColor=default;startSize=11;endArrow=open;endFill=0;endSize=11;" edge="1" parent="1" source="YY63stGorWPtqNPKm8e1-62" target="YY63stGorWPtqNPKm8e1-63">
          <mxGeometry relative="1" as="geometry" />
        </mxCell>
        <mxCell id="YY63stGorWPtqNPKm8e1-62" value="Клиент" style="shape=umlActor;verticalLabelPosition=bottom;verticalAlign=top;html=1;outlineConnect=0;" vertex="1" parent="1">
          <mxGeometry x="660" y="621" width="30" height="60" as="geometry" />
        </mxCell>
        <mxCell id="YY63stGorWPtqNPKm8e1-67" value="" style="edgeStyle=none;rounded=0;orthogonalLoop=1;jettySize=auto;html=1;strokeColor=default;strokeWidth=1;align=center;verticalAlign=middle;fontFamily=Helvetica;fontSize=11;fontColor=default;labelBackgroundColor=default;startSize=11;endArrow=open;endFill=0;endSize=11;" edge="1" parent="1" source="YY63stGorWPtqNPKm8e1-63" target="YY63stGorWPtqNPKm8e1-65">
          <mxGeometry relative="1" as="geometry" />
        </mxCell>
        <mxCell id="YY63stGorWPtqNPKm8e1-63" value="Место встречи с агентом" style="shape=umlBoundary;whiteSpace=wrap;html=1;" vertex="1" parent="1">
          <mxGeometry x="734" y="611.5" width="100" height="80" as="geometry" />
        </mxCell>
        <mxCell id="YY63stGorWPtqNPKm8e1-64" value="Объект&lt;div&gt;недвижимости&lt;/div&gt;" style="ellipse;shape=umlEntity;whiteSpace=wrap;html=1;" vertex="1" parent="1">
          <mxGeometry x="1016" y="608.5" width="92" height="86" as="geometry" />
        </mxCell>
        <mxCell id="YY63stGorWPtqNPKm8e1-68" value="" style="edgeStyle=none;rounded=0;orthogonalLoop=1;jettySize=auto;html=1;strokeColor=default;strokeWidth=1;align=center;verticalAlign=middle;fontFamily=Helvetica;fontSize=11;fontColor=default;labelBackgroundColor=default;startSize=11;endArrow=open;endFill=0;endSize=11;dashed=1;" edge="1" parent="1" source="YY63stGorWPtqNPKm8e1-65" target="YY63stGorWPtqNPKm8e1-64">
          <mxGeometry relative="1" as="geometry" />
        </mxCell>
        <mxCell id="YY63stGorWPtqNPKm8e1-65" value="Осмотр" style="ellipse;shape=umlControl;whiteSpace=wrap;html=1;" vertex="1" parent="1">
          <mxGeometry x="883" y="604.5" width="84" height="86" as="geometry" />
        </mxCell>
        <mxCell id="YY63stGorWPtqNPKm8e1-77" value="" style="edgeStyle=none;rounded=0;orthogonalLoop=1;jettySize=auto;html=1;strokeColor=default;strokeWidth=1;align=center;verticalAlign=middle;fontFamily=Helvetica;fontSize=11;fontColor=default;labelBackgroundColor=default;startSize=11;endArrow=open;endFill=0;endSize=11;" edge="1" parent="1" source="YY63stGorWPtqNPKm8e1-69" target="YY63stGorWPtqNPKm8e1-71">
          <mxGeometry relative="1" as="geometry" />
        </mxCell>
        <mxCell id="YY63stGorWPtqNPKm8e1-69" value="Интерфейс&lt;div&gt;сайта&lt;/div&gt;&lt;div&gt;агенства&lt;/div&gt;" style="shape=umlBoundary;whiteSpace=wrap;html=1;" vertex="1" parent="1">
          <mxGeometry x="742" y="860" width="100" height="80" as="geometry" />
        </mxCell>
        <mxCell id="YY63stGorWPtqNPKm8e1-70" value="Объект недвижимости" style="ellipse;shape=umlEntity;whiteSpace=wrap;html=1;" vertex="1" parent="1">
          <mxGeometry x="983" y="766.5" width="89" height="85.5" as="geometry" />
        </mxCell>
        <mxCell id="YY63stGorWPtqNPKm8e1-71" value="Заключение&lt;div&gt;сделки&lt;/div&gt;" style="ellipse;shape=umlControl;whiteSpace=wrap;html=1;" vertex="1" parent="1">
          <mxGeometry x="875" y="853" width="84" height="86" as="geometry" />
        </mxCell>
        <mxCell id="YY63stGorWPtqNPKm8e1-72" value="Документы&lt;div&gt;для&lt;/div&gt;&lt;div&gt;сделки&lt;/div&gt;" style="ellipse;shape=umlEntity;whiteSpace=wrap;html=1;" vertex="1" parent="1">
          <mxGeometry x="1064" y="856.25" width="89" height="85.5" as="geometry" />
        </mxCell>
        <mxCell id="YY63stGorWPtqNPKm8e1-73" value="Личный кабинет" style="ellipse;shape=umlEntity;whiteSpace=wrap;html=1;" vertex="1" parent="1">
          <mxGeometry x="980" y="947" width="89" height="85.5" as="geometry" />
        </mxCell>
        <mxCell id="YY63stGorWPtqNPKm8e1-76" value="" style="edgeStyle=none;rounded=0;orthogonalLoop=1;jettySize=auto;html=1;strokeColor=default;strokeWidth=1;align=center;verticalAlign=middle;fontFamily=Helvetica;fontSize=11;fontColor=default;labelBackgroundColor=default;startSize=11;endArrow=open;endFill=0;endSize=11;" edge="1" parent="1" source="YY63stGorWPtqNPKm8e1-75" target="YY63stGorWPtqNPKm8e1-69">
          <mxGeometry relative="1" as="geometry" />
        </mxCell>
        <mxCell id="YY63stGorWPtqNPKm8e1-75" value="Клиент" style="shape=umlActor;verticalLabelPosition=bottom;verticalAlign=top;html=1;outlineConnect=0;" vertex="1" parent="1">
          <mxGeometry x="679" y="870" width="30" height="60" as="geometry" />
        </mxCell>
        <mxCell id="YY63stGorWPtqNPKm8e1-80" value="" style="edgeStyle=none;rounded=0;orthogonalLoop=1;jettySize=auto;html=1;strokeColor=default;strokeWidth=1;align=center;verticalAlign=middle;fontFamily=Helvetica;fontSize=11;fontColor=default;labelBackgroundColor=default;startSize=11;endArrow=open;endFill=0;endSize=11;dashed=1;" edge="1" parent="1" target="YY63stGorWPtqNPKm8e1-72">
          <mxGeometry relative="1" as="geometry">
            <mxPoint x="959" y="899" as="sourcePoint" />
            <mxPoint x="1008" y="901" as="targetPoint" />
          </mxGeometry>
        </mxCell>
        <mxCell id="YY63stGorWPtqNPKm8e1-81" value="" style="edgeStyle=none;rounded=0;orthogonalLoop=1;jettySize=auto;html=1;strokeColor=default;strokeWidth=1;align=center;verticalAlign=middle;fontFamily=Helvetica;fontSize=11;fontColor=default;labelBackgroundColor=default;startSize=11;endArrow=open;endFill=0;endSize=11;dashed=1;exitX=0.807;exitY=0.216;exitDx=0;exitDy=0;exitPerimeter=0;" edge="1" parent="1" source="YY63stGorWPtqNPKm8e1-71" target="YY63stGorWPtqNPKm8e1-70">
          <mxGeometry relative="1" as="geometry">
            <mxPoint x="969" y="909" as="sourcePoint" />
            <mxPoint x="1074" y="909" as="targetPoint" />
          </mxGeometry>
        </mxCell>
        <mxCell id="YY63stGorWPtqNPKm8e1-82" value="" style="edgeStyle=none;rounded=0;orthogonalLoop=1;jettySize=auto;html=1;strokeColor=default;strokeWidth=1;align=center;verticalAlign=middle;fontFamily=Helvetica;fontSize=11;fontColor=default;labelBackgroundColor=default;startSize=11;endArrow=open;endFill=0;endSize=11;dashed=1;exitX=0.841;exitY=0.93;exitDx=0;exitDy=0;exitPerimeter=0;" edge="1" parent="1" source="YY63stGorWPtqNPKm8e1-71" target="YY63stGorWPtqNPKm8e1-73">
          <mxGeometry relative="1" as="geometry">
            <mxPoint x="953" y="882" as="sourcePoint" />
            <mxPoint x="1002" y="845" as="targetPoint" />
          </mxGeometry>
        </mxCell>
        <mxCell id="YY63stGorWPtqNPKm8e1-87" value="" style="edgeStyle=none;rounded=0;orthogonalLoop=1;jettySize=auto;html=1;strokeColor=default;strokeWidth=1;align=center;verticalAlign=middle;fontFamily=Helvetica;fontSize=11;fontColor=default;labelBackgroundColor=default;startSize=11;endArrow=open;endFill=0;endSize=11;" edge="1" parent="1" source="YY63stGorWPtqNPKm8e1-83" target="YY63stGorWPtqNPKm8e1-85">
          <mxGeometry relative="1" as="geometry" />
        </mxCell>
        <mxCell id="YY63stGorWPtqNPKm8e1-88" value="" style="edgeStyle=none;rounded=0;orthogonalLoop=1;jettySize=auto;html=1;strokeColor=default;strokeWidth=1;align=center;verticalAlign=middle;fontFamily=Helvetica;fontSize=11;fontColor=default;labelBackgroundColor=default;startSize=11;endArrow=open;endFill=0;endSize=11;" edge="1" parent="1" source="YY63stGorWPtqNPKm8e1-83" target="YY63stGorWPtqNPKm8e1-85">
          <mxGeometry relative="1" as="geometry" />
        </mxCell>
        <mxCell id="YY63stGorWPtqNPKm8e1-83" value="Агент недвижимости" style="shape=umlActor;verticalLabelPosition=bottom;verticalAlign=top;html=1;outlineConnect=0;" vertex="1" parent="1">
          <mxGeometry x="1560" y="31" width="30" height="60" as="geometry" />
        </mxCell>
        <mxCell id="YY63stGorWPtqNPKm8e1-84" value="Заключение сделки" style="ellipse;whiteSpace=wrap;html=1;fontFamily=Helvetica;fontSize=11;fontColor=default;labelBackgroundColor=default;" vertex="1" parent="1">
          <mxGeometry x="1590" y="128.5" width="140" height="70" as="geometry" />
        </mxCell>
        <mxCell id="YY63stGorWPtqNPKm8e1-85" value="Осмотр объекта&lt;div&gt;недвижимости&lt;/div&gt;" style="ellipse;whiteSpace=wrap;html=1;fontFamily=Helvetica;fontSize=11;fontColor=default;labelBackgroundColor=default;" vertex="1" parent="1">
          <mxGeometry x="1420" y="129.5" width="140" height="70" as="geometry" />
        </mxCell>
        <mxCell id="YY63stGorWPtqNPKm8e1-91" value="" style="edgeStyle=none;rounded=0;orthogonalLoop=1;jettySize=auto;html=1;strokeColor=default;strokeWidth=1;align=center;verticalAlign=middle;fontFamily=Helvetica;fontSize=11;fontColor=default;labelBackgroundColor=default;startSize=11;endArrow=open;endFill=0;endSize=11;" edge="1" parent="1" target="YY63stGorWPtqNPKm8e1-84">
          <mxGeometry relative="1" as="geometry">
            <mxPoint x="1593" y="79" as="sourcePoint" />
            <mxPoint x="1522" y="142" as="targetPoint" />
          </mxGeometry>
        </mxCell>
        <mxCell id="YY63stGorWPtqNPKm8e1-108" style="edgeStyle=none;rounded=0;orthogonalLoop=1;jettySize=auto;html=1;exitX=0;exitY=1;exitDx=0;exitDy=0;strokeColor=default;strokeWidth=1;align=center;verticalAlign=middle;fontFamily=Helvetica;fontSize=11;fontColor=default;labelBackgroundColor=default;startSize=11;endArrow=none;endFill=0;endSize=11;dashed=1;" edge="1" parent="1" source="YY63stGorWPtqNPKm8e1-92" target="YY63stGorWPtqNPKm8e1-94">
          <mxGeometry relative="1" as="geometry" />
        </mxCell>
        <mxCell id="YY63stGorWPtqNPKm8e1-110" style="edgeStyle=none;rounded=0;orthogonalLoop=1;jettySize=auto;html=1;exitX=0.5;exitY=1;exitDx=0;exitDy=0;dashed=1;strokeColor=default;strokeWidth=1;align=center;verticalAlign=middle;fontFamily=Helvetica;fontSize=11;fontColor=default;labelBackgroundColor=default;startSize=11;endArrow=none;endFill=0;endSize=11;" edge="1" parent="1" source="YY63stGorWPtqNPKm8e1-92" target="YY63stGorWPtqNPKm8e1-96">
          <mxGeometry relative="1" as="geometry" />
        </mxCell>
        <mxCell id="YY63stGorWPtqNPKm8e1-111" style="edgeStyle=none;rounded=0;orthogonalLoop=1;jettySize=auto;html=1;exitX=1;exitY=1;exitDx=0;exitDy=0;dashed=1;strokeColor=default;strokeWidth=1;align=center;verticalAlign=middle;fontFamily=Helvetica;fontSize=11;fontColor=default;labelBackgroundColor=default;startSize=11;endArrow=none;endFill=0;endSize=11;" edge="1" parent="1" source="YY63stGorWPtqNPKm8e1-92" target="YY63stGorWPtqNPKm8e1-95">
          <mxGeometry relative="1" as="geometry" />
        </mxCell>
        <mxCell id="YY63stGorWPtqNPKm8e1-92" value="Осмотр объекта&lt;div&gt;недвижимости&lt;/div&gt;" style="ellipse;whiteSpace=wrap;html=1;fontFamily=Helvetica;fontSize=11;fontColor=default;labelBackgroundColor=default;" vertex="1" parent="1">
          <mxGeometry x="1500" y="234" width="140" height="70" as="geometry" />
        </mxCell>
        <mxCell id="YY63stGorWPtqNPKm8e1-117" style="edgeStyle=none;rounded=0;orthogonalLoop=1;jettySize=auto;html=1;exitX=0;exitY=0.5;exitDx=0;exitDy=0;dashed=1;strokeColor=default;strokeWidth=1;align=center;verticalAlign=middle;fontFamily=Helvetica;fontSize=11;fontColor=default;labelBackgroundColor=default;startSize=11;endArrow=none;endFill=0;endSize=11;" edge="1" parent="1" source="YY63stGorWPtqNPKm8e1-93" target="YY63stGorWPtqNPKm8e1-113">
          <mxGeometry relative="1" as="geometry" />
        </mxCell>
        <mxCell id="YY63stGorWPtqNPKm8e1-118" style="edgeStyle=none;rounded=0;orthogonalLoop=1;jettySize=auto;html=1;exitX=0.5;exitY=1;exitDx=0;exitDy=0;dashed=1;strokeColor=default;strokeWidth=1;align=center;verticalAlign=middle;fontFamily=Helvetica;fontSize=11;fontColor=default;labelBackgroundColor=default;startSize=11;endArrow=none;endFill=0;endSize=11;" edge="1" parent="1" source="YY63stGorWPtqNPKm8e1-93" target="YY63stGorWPtqNPKm8e1-114">
          <mxGeometry relative="1" as="geometry" />
        </mxCell>
        <mxCell id="YY63stGorWPtqNPKm8e1-119" style="edgeStyle=none;rounded=0;orthogonalLoop=1;jettySize=auto;html=1;exitX=0.5;exitY=1;exitDx=0;exitDy=0;dashed=1;strokeColor=default;strokeWidth=1;align=center;verticalAlign=middle;fontFamily=Helvetica;fontSize=11;fontColor=default;labelBackgroundColor=default;startSize=11;endArrow=none;endFill=0;endSize=11;" edge="1" parent="1" source="YY63stGorWPtqNPKm8e1-93" target="YY63stGorWPtqNPKm8e1-116">
          <mxGeometry relative="1" as="geometry" />
        </mxCell>
        <mxCell id="YY63stGorWPtqNPKm8e1-120" style="edgeStyle=none;rounded=0;orthogonalLoop=1;jettySize=auto;html=1;exitX=1;exitY=0.5;exitDx=0;exitDy=0;dashed=1;strokeColor=default;strokeWidth=1;align=center;verticalAlign=middle;fontFamily=Helvetica;fontSize=11;fontColor=default;labelBackgroundColor=default;startSize=11;endArrow=none;endFill=0;endSize=11;" edge="1" parent="1" source="YY63stGorWPtqNPKm8e1-93" target="YY63stGorWPtqNPKm8e1-115">
          <mxGeometry relative="1" as="geometry" />
        </mxCell>
        <mxCell id="YY63stGorWPtqNPKm8e1-93" value="Заключение сделки" style="ellipse;whiteSpace=wrap;html=1;fontFamily=Helvetica;fontSize=11;fontColor=default;labelBackgroundColor=default;" vertex="1" parent="1">
          <mxGeometry x="1528" y="452" width="140" height="70" as="geometry" />
        </mxCell>
        <mxCell id="YY63stGorWPtqNPKm8e1-94" value="Место встречи с клиентом" style="shape=umlBoundary;whiteSpace=wrap;html=1;" vertex="1" parent="1">
          <mxGeometry x="1387" y="337" width="100" height="80" as="geometry" />
        </mxCell>
        <mxCell id="YY63stGorWPtqNPKm8e1-95" value="Объект&lt;div&gt;недвижимости&lt;/div&gt;" style="ellipse;shape=umlEntity;whiteSpace=wrap;html=1;" vertex="1" parent="1">
          <mxGeometry x="1648" y="334" width="92" height="86" as="geometry" />
        </mxCell>
        <mxCell id="YY63stGorWPtqNPKm8e1-96" value="Осмотр" style="ellipse;shape=umlControl;whiteSpace=wrap;html=1;" vertex="1" parent="1">
          <mxGeometry x="1528" y="330" width="84" height="86" as="geometry" />
        </mxCell>
        <mxCell id="YY63stGorWPtqNPKm8e1-102" value="" style="edgeStyle=none;rounded=0;orthogonalLoop=1;jettySize=auto;html=1;strokeColor=default;strokeWidth=1;align=center;verticalAlign=middle;fontFamily=Helvetica;fontSize=11;fontColor=default;labelBackgroundColor=default;startSize=11;endArrow=open;endFill=0;endSize=11;" edge="1" parent="1" source="YY63stGorWPtqNPKm8e1-97" target="YY63stGorWPtqNPKm8e1-99">
          <mxGeometry relative="1" as="geometry" />
        </mxCell>
        <mxCell id="YY63stGorWPtqNPKm8e1-97" value="Интерфейс&lt;div&gt;администратора&lt;/div&gt;&lt;div&gt;на сайте&lt;/div&gt;&lt;div&gt;агентства&lt;/div&gt;" style="shape=umlBoundary;whiteSpace=wrap;html=1;" vertex="1" parent="1">
          <mxGeometry x="1968" y="94.5" width="140" height="91" as="geometry" />
        </mxCell>
        <mxCell id="YY63stGorWPtqNPKm8e1-98" value="Объект&lt;div&gt;недвижимости&lt;/div&gt;" style="ellipse;shape=umlEntity;whiteSpace=wrap;html=1;" vertex="1" parent="1">
          <mxGeometry x="2312" y="43" width="92" height="86.5" as="geometry" />
        </mxCell>
        <mxCell id="YY63stGorWPtqNPKm8e1-105" value="" style="edgeStyle=none;rounded=0;orthogonalLoop=1;jettySize=auto;html=1;strokeColor=default;strokeWidth=1;align=center;verticalAlign=middle;fontFamily=Helvetica;fontSize=11;fontColor=default;labelBackgroundColor=default;startSize=11;endArrow=open;endFill=0;endSize=11;dashed=1;" edge="1" parent="1" source="YY63stGorWPtqNPKm8e1-99" target="YY63stGorWPtqNPKm8e1-103">
          <mxGeometry relative="1" as="geometry" />
        </mxCell>
        <mxCell id="YY63stGorWPtqNPKm8e1-99" value="Отправка формы сделки&lt;div&gt;по недвижимости&lt;/div&gt;" style="ellipse;shape=umlControl;whiteSpace=wrap;html=1;" vertex="1" parent="1">
          <mxGeometry x="2155" y="89.5" width="118" height="101" as="geometry" />
        </mxCell>
        <mxCell id="YY63stGorWPtqNPKm8e1-103" value="Личный кабинет клиента" style="ellipse;shape=umlEntity;whiteSpace=wrap;html=1;" vertex="1" parent="1">
          <mxGeometry x="2312" y="155" width="92" height="86.5" as="geometry" />
        </mxCell>
        <mxCell id="YY63stGorWPtqNPKm8e1-107" value="" style="edgeStyle=none;rounded=0;orthogonalLoop=1;jettySize=auto;html=1;strokeColor=default;strokeWidth=1;align=center;verticalAlign=middle;fontFamily=Helvetica;fontSize=11;fontColor=default;labelBackgroundColor=default;startSize=11;endArrow=open;endFill=0;endSize=11;exitX=0.912;exitY=0.317;exitDx=0;exitDy=0;exitPerimeter=0;dashed=1;" edge="1" parent="1" source="YY63stGorWPtqNPKm8e1-99" target="YY63stGorWPtqNPKm8e1-98">
          <mxGeometry relative="1" as="geometry">
            <mxPoint x="2277" y="171" as="sourcePoint" />
            <mxPoint x="2326" y="191" as="targetPoint" />
          </mxGeometry>
        </mxCell>
        <mxCell id="YY63stGorWPtqNPKm8e1-113" value="Интерфейс&lt;div&gt;администратора&lt;/div&gt;&lt;div&gt;на сайте&lt;/div&gt;&lt;div&gt;агентства&lt;/div&gt;" style="shape=umlBoundary;whiteSpace=wrap;html=1;" vertex="1" parent="1">
          <mxGeometry x="1293" y="560.5" width="140" height="91" as="geometry" />
        </mxCell>
        <mxCell id="YY63stGorWPtqNPKm8e1-114" value="Отправка формы сделки&lt;div&gt;по недвижимости&lt;/div&gt;" style="ellipse;shape=umlControl;whiteSpace=wrap;html=1;" vertex="1" parent="1">
          <mxGeometry x="1465" y="555" width="118" height="101" as="geometry" />
        </mxCell>
        <mxCell id="YY63stGorWPtqNPKm8e1-115" value="Объект&lt;div&gt;недвижимости&lt;/div&gt;" style="ellipse;shape=umlEntity;whiteSpace=wrap;html=1;" vertex="1" parent="1">
          <mxGeometry x="1718" y="565" width="92" height="86.5" as="geometry" />
        </mxCell>
        <mxCell id="YY63stGorWPtqNPKm8e1-116" value="Личный кабинет клиента" style="ellipse;shape=umlEntity;whiteSpace=wrap;html=1;" vertex="1" parent="1">
          <mxGeometry x="1610" y="565" width="92" height="86.5" as="geometry" />
        </mxCell>
        <mxCell id="YY63stGorWPtqNPKm8e1-123" value="" style="edgeStyle=none;rounded=0;orthogonalLoop=1;jettySize=auto;html=1;strokeColor=default;strokeWidth=1;align=center;verticalAlign=middle;fontFamily=Helvetica;fontSize=11;fontColor=default;labelBackgroundColor=default;startSize=11;endArrow=open;endFill=0;endSize=11;" edge="1" parent="1" source="YY63stGorWPtqNPKm8e1-121" target="YY63stGorWPtqNPKm8e1-97">
          <mxGeometry relative="1" as="geometry" />
        </mxCell>
        <mxCell id="YY63stGorWPtqNPKm8e1-121" value="Агент недвижимости" style="shape=umlActor;verticalLabelPosition=bottom;verticalAlign=top;html=1;outlineConnect=0;" vertex="1" parent="1">
          <mxGeometry x="1903" y="110" width="30" height="60" as="geometry" />
        </mxCell>
        <mxCell id="YY63stGorWPtqNPKm8e1-127" value="" style="edgeStyle=none;rounded=0;orthogonalLoop=1;jettySize=auto;html=1;strokeColor=default;strokeWidth=1;align=center;verticalAlign=middle;fontFamily=Helvetica;fontSize=11;fontColor=default;labelBackgroundColor=default;startSize=11;endArrow=open;endFill=0;endSize=11;" edge="1" parent="1" source="YY63stGorWPtqNPKm8e1-124" target="YY63stGorWPtqNPKm8e1-126">
          <mxGeometry relative="1" as="geometry" />
        </mxCell>
        <mxCell id="YY63stGorWPtqNPKm8e1-124" value="Место встречи с клиентом" style="shape=umlBoundary;whiteSpace=wrap;html=1;" vertex="1" parent="1">
          <mxGeometry x="2035" y="331" width="100" height="80" as="geometry" />
        </mxCell>
        <mxCell id="YY63stGorWPtqNPKm8e1-125" value="Объект&lt;div&gt;недвижимости&lt;/div&gt;" style="ellipse;shape=umlEntity;whiteSpace=wrap;html=1;" vertex="1" parent="1">
          <mxGeometry x="2296" y="328" width="92" height="86" as="geometry" />
        </mxCell>
        <mxCell id="YY63stGorWPtqNPKm8e1-128" value="" style="edgeStyle=none;rounded=0;orthogonalLoop=1;jettySize=auto;html=1;strokeColor=default;strokeWidth=1;align=center;verticalAlign=middle;fontFamily=Helvetica;fontSize=11;fontColor=default;labelBackgroundColor=default;startSize=11;endArrow=open;endFill=0;endSize=11;dashed=1;" edge="1" parent="1" source="YY63stGorWPtqNPKm8e1-126" target="YY63stGorWPtqNPKm8e1-125">
          <mxGeometry relative="1" as="geometry" />
        </mxCell>
        <mxCell id="YY63stGorWPtqNPKm8e1-126" value="Осмотр" style="ellipse;shape=umlControl;whiteSpace=wrap;html=1;" vertex="1" parent="1">
          <mxGeometry x="2176" y="328" width="84" height="86" as="geometry" />
        </mxCell>
        <mxCell id="YY63stGorWPtqNPKm8e1-130" value="" style="edgeStyle=none;rounded=0;orthogonalLoop=1;jettySize=auto;html=1;strokeColor=default;strokeWidth=1;align=center;verticalAlign=middle;fontFamily=Helvetica;fontSize=11;fontColor=default;labelBackgroundColor=default;startSize=11;endArrow=open;endFill=0;endSize=11;" edge="1" parent="1" source="YY63stGorWPtqNPKm8e1-129" target="YY63stGorWPtqNPKm8e1-124">
          <mxGeometry relative="1" as="geometry" />
        </mxCell>
        <mxCell id="YY63stGorWPtqNPKm8e1-129" value="Агент недвижимости" style="shape=umlActor;verticalLabelPosition=bottom;verticalAlign=top;html=1;outlineConnect=0;" vertex="1" parent="1">
          <mxGeometry x="1965" y="341" width="30" height="60" as="geometry" />
        </mxCell>
      </root>
    </mxGraphModel>
  </diagram>
</mxfile>
